<mxfile host="app.diagrams.net" modified="2021-02-11T08:58:56.424Z" agent="5.0 (Windows NT 10.0; Win64; x64) AppleWebKit/537.36 (KHTML, like Gecko) Chrome/88.0.4324.150 Safari/537.36 Edg/88.0.705.63" etag="QSjYB-KwJuXlrmGwKDjf" version="14.2.3" type="github">
  <diagram id="ZadvVQZouZqxKDmo43id" name="Page-1">
    <mxGraphModel dx="975" dy="430" grid="1" gridSize="10" guides="1" tooltips="1" connect="1" arrows="1" fold="1" page="1" pageScale="1" pageWidth="850" pageHeight="1100" math="0" shadow="0">
      <root>
        <mxCell id="0" />
        <mxCell id="1" parent="0" />
        <mxCell id="zm9BK-51ZprV-HkFFLnc-1" value="Admin" style="swimlane;fontStyle=0;childLayout=stackLayout;horizontal=1;startSize=26;fillColor=none;horizontalStack=0;resizeParent=1;resizeParentMax=0;resizeLast=0;collapsible=1;marginBottom=0;" parent="1" vertex="1">
          <mxGeometry x="130" y="65" width="130" height="242" as="geometry" />
        </mxCell>
        <mxCell id="zm9BK-51ZprV-HkFFLnc-2" value="# db&#xa;# builder&#xa;# produkModel&#xa;# addModel;&#xa;# hargaModel" style="text;strokeColor=none;fillColor=none;align=left;verticalAlign=top;spacingLeft=4;spacingRight=4;overflow=hidden;rotatable=0;points=[[0,0.5],[1,0.5]];portConstraint=eastwest;" parent="zm9BK-51ZprV-HkFFLnc-1" vertex="1">
          <mxGeometry y="26" width="130" height="84" as="geometry" />
        </mxCell>
        <mxCell id="zm9BK-51ZprV-HkFFLnc-4" value="+ register()&#xa;+ produk()&#xa;+ detailproduk()&#xa;+ save()&#xa;+ delete()&#xa;+ update()&#xa;+ updateharga()" style="text;fillColor=none;align=left;verticalAlign=top;spacingLeft=4;spacingRight=4;overflow=hidden;rotatable=0;points=[[0,0.5],[1,0.5]];portConstraint=eastwest;strokeColor=#000000;" parent="zm9BK-51ZprV-HkFFLnc-1" vertex="1">
          <mxGeometry y="110" width="130" height="132" as="geometry" />
        </mxCell>
        <mxCell id="zm9BK-51ZprV-HkFFLnc-5" value="Gudang" style="swimlane;fontStyle=0;childLayout=stackLayout;horizontal=1;startSize=26;fillColor=none;horizontalStack=0;resizeParent=1;resizeParentMax=0;resizeLast=0;collapsible=1;marginBottom=0;" parent="1" vertex="1">
          <mxGeometry x="350" y="65" width="130" height="190" as="geometry" />
        </mxCell>
        <mxCell id="zm9BK-51ZprV-HkFFLnc-6" value="# db&#xa;# builder&#xa;# produkModel&#xa;# addModel;&#xa;# viewmutasiModel&#xa;# stokModel&#xa;# mutasiModel" style="text;strokeColor=none;fillColor=none;align=left;verticalAlign=top;spacingLeft=4;spacingRight=4;overflow=hidden;rotatable=0;points=[[0,0.5],[1,0.5]];portConstraint=eastwest;" parent="zm9BK-51ZprV-HkFFLnc-5" vertex="1">
          <mxGeometry y="26" width="130" height="114" as="geometry" />
        </mxCell>
        <mxCell id="zm9BK-51ZprV-HkFFLnc-7" value="+ mutasi()&#xa;+ save()&#xa;+ stok()" style="text;fillColor=none;align=left;verticalAlign=top;spacingLeft=4;spacingRight=4;overflow=hidden;rotatable=0;points=[[0,0.5],[1,0.5]];portConstraint=eastwest;strokeColor=#000000;" parent="zm9BK-51ZprV-HkFFLnc-5" vertex="1">
          <mxGeometry y="140" width="130" height="50" as="geometry" />
        </mxCell>
        <mxCell id="zm9BK-51ZprV-HkFFLnc-9" value="Penjualan" style="swimlane;fontStyle=0;childLayout=stackLayout;horizontal=1;startSize=26;fillColor=none;horizontalStack=0;resizeParent=1;resizeParentMax=0;resizeLast=0;collapsible=1;marginBottom=0;" parent="1" vertex="1">
          <mxGeometry x="600" y="60" width="130" height="200" as="geometry" />
        </mxCell>
        <mxCell id="zm9BK-51ZprV-HkFFLnc-10" value="# db&#xa;# builder&#xa;# produkModel&#xa;# addModel;&#xa;# fakturModel&#xa;# invoiceModel&#xa;# pembeliModel&#xa;# kendaraanModel" style="text;strokeColor=none;fillColor=none;align=left;verticalAlign=top;spacingLeft=4;spacingRight=4;overflow=hidden;rotatable=0;points=[[0,0.5],[1,0.5]];portConstraint=eastwest;" parent="zm9BK-51ZprV-HkFFLnc-9" vertex="1">
          <mxGeometry y="26" width="130" height="124" as="geometry" />
        </mxCell>
        <mxCell id="zm9BK-51ZprV-HkFFLnc-11" value="+ mutasi()&#xa;+ save()&#xa;+ stok()" style="text;fillColor=none;align=left;verticalAlign=top;spacingLeft=4;spacingRight=4;overflow=hidden;rotatable=0;points=[[0,0.5],[1,0.5]];portConstraint=eastwest;strokeColor=#000000;" parent="zm9BK-51ZprV-HkFFLnc-9" vertex="1">
          <mxGeometry y="150" width="130" height="50" as="geometry" />
        </mxCell>
        <mxCell id="zm9BK-51ZprV-HkFFLnc-55" style="edgeStyle=orthogonalEdgeStyle;rounded=0;orthogonalLoop=1;jettySize=auto;html=1;exitX=0.5;exitY=0;exitDx=0;exitDy=0;" parent="1" source="zm9BK-51ZprV-HkFFLnc-12" target="zm9BK-51ZprV-HkFFLnc-2" edge="1">
          <mxGeometry relative="1" as="geometry">
            <Array as="points">
              <mxPoint x="185" y="330" />
              <mxPoint x="110" y="330" />
              <mxPoint x="110" y="133" />
            </Array>
          </mxGeometry>
        </mxCell>
        <mxCell id="zm9BK-51ZprV-HkFFLnc-12" value="ProdukModel" style="swimlane;fontStyle=0;childLayout=stackLayout;horizontal=1;startSize=26;fillColor=none;horizontalStack=0;resizeParent=1;resizeParentMax=0;resizeLast=0;collapsible=1;marginBottom=0;" parent="1" vertex="1">
          <mxGeometry x="120" y="383" width="130" height="110" as="geometry" />
        </mxCell>
        <mxCell id="zm9BK-51ZprV-HkFFLnc-13" value="#table" style="text;strokeColor=none;fillColor=none;align=left;verticalAlign=top;spacingLeft=4;spacingRight=4;overflow=hidden;rotatable=0;points=[[0,0.5],[1,0.5]];portConstraint=eastwest;" parent="zm9BK-51ZprV-HkFFLnc-12" vertex="1">
          <mxGeometry y="26" width="130" height="34" as="geometry" />
        </mxCell>
        <mxCell id="zm9BK-51ZprV-HkFFLnc-14" value="+ getProduk()&#xa;+ search()&#xa;" style="text;fillColor=none;align=left;verticalAlign=top;spacingLeft=4;spacingRight=4;overflow=hidden;rotatable=0;points=[[0,0.5],[1,0.5]];portConstraint=eastwest;strokeColor=#000000;" parent="zm9BK-51ZprV-HkFFLnc-12" vertex="1">
          <mxGeometry y="60" width="130" height="50" as="geometry" />
        </mxCell>
        <mxCell id="zm9BK-51ZprV-HkFFLnc-56" style="edgeStyle=orthogonalEdgeStyle;rounded=0;orthogonalLoop=1;jettySize=auto;html=1;exitX=0.5;exitY=0;exitDx=0;exitDy=0;entryX=-0.004;entryY=0.731;entryDx=0;entryDy=0;entryPerimeter=0;" parent="1" source="zm9BK-51ZprV-HkFFLnc-16" target="zm9BK-51ZprV-HkFFLnc-2" edge="1">
          <mxGeometry relative="1" as="geometry">
            <Array as="points">
              <mxPoint x="185" y="550" />
              <mxPoint x="70" y="550" />
              <mxPoint x="70" y="152" />
            </Array>
          </mxGeometry>
        </mxCell>
        <mxCell id="zm9BK-51ZprV-HkFFLnc-16" value="AddModel" style="swimlane;fontStyle=0;childLayout=stackLayout;horizontal=1;startSize=26;fillColor=none;horizontalStack=0;resizeParent=1;resizeParentMax=0;resizeLast=0;collapsible=1;marginBottom=0;" parent="1" vertex="1">
          <mxGeometry x="120" y="560" width="130" height="160" as="geometry" />
        </mxCell>
        <mxCell id="zm9BK-51ZprV-HkFFLnc-17" value="# table&#xa;# primaryKey&#xa;# allowedFields&#xa;# useTimestamps" style="text;strokeColor=none;fillColor=none;align=left;verticalAlign=top;spacingLeft=4;spacingRight=4;overflow=hidden;rotatable=0;points=[[0,0.5],[1,0.5]];portConstraint=eastwest;" parent="zm9BK-51ZprV-HkFFLnc-16" vertex="1">
          <mxGeometry y="26" width="130" height="84" as="geometry" />
        </mxCell>
        <mxCell id="zm9BK-51ZprV-HkFFLnc-18" value="+ getData()&#xa;+ updateProduk()&#xa;" style="text;fillColor=none;align=left;verticalAlign=top;spacingLeft=4;spacingRight=4;overflow=hidden;rotatable=0;points=[[0,0.5],[1,0.5]];portConstraint=eastwest;strokeColor=#000000;" parent="zm9BK-51ZprV-HkFFLnc-16" vertex="1">
          <mxGeometry y="110" width="130" height="50" as="geometry" />
        </mxCell>
        <mxCell id="zm9BK-51ZprV-HkFFLnc-60" style="edgeStyle=orthogonalEdgeStyle;rounded=0;orthogonalLoop=1;jettySize=auto;html=1;exitX=0.5;exitY=0;exitDx=0;exitDy=0;" parent="1" source="zm9BK-51ZprV-HkFFLnc-26" target="zm9BK-51ZprV-HkFFLnc-6" edge="1">
          <mxGeometry relative="1" as="geometry" />
        </mxCell>
        <mxCell id="zm9BK-51ZprV-HkFFLnc-26" value="ViewmutasiModel" style="swimlane;fontStyle=0;childLayout=stackLayout;horizontal=1;startSize=26;fillColor=none;horizontalStack=0;resizeParent=1;resizeParentMax=0;resizeLast=0;collapsible=1;marginBottom=0;" parent="1" vertex="1">
          <mxGeometry x="360" y="383" width="130" height="110" as="geometry" />
        </mxCell>
        <mxCell id="zm9BK-51ZprV-HkFFLnc-27" value="#table" style="text;strokeColor=none;fillColor=none;align=left;verticalAlign=top;spacingLeft=4;spacingRight=4;overflow=hidden;rotatable=0;points=[[0,0.5],[1,0.5]];portConstraint=eastwest;" parent="zm9BK-51ZprV-HkFFLnc-26" vertex="1">
          <mxGeometry y="26" width="130" height="34" as="geometry" />
        </mxCell>
        <mxCell id="zm9BK-51ZprV-HkFFLnc-28" value="+ getProduk()&#xa;+ search()&#xa;" style="text;fillColor=none;align=left;verticalAlign=top;spacingLeft=4;spacingRight=4;overflow=hidden;rotatable=0;points=[[0,0.5],[1,0.5]];portConstraint=eastwest;strokeColor=#000000;" parent="zm9BK-51ZprV-HkFFLnc-26" vertex="1">
          <mxGeometry y="60" width="130" height="50" as="geometry" />
        </mxCell>
        <mxCell id="zm9BK-51ZprV-HkFFLnc-29" value="StokModel" style="swimlane;fontStyle=0;childLayout=stackLayout;horizontal=1;startSize=26;fillColor=none;horizontalStack=0;resizeParent=1;resizeParentMax=0;resizeLast=0;collapsible=1;marginBottom=0;" parent="1" vertex="1">
          <mxGeometry x="360" y="800" width="130" height="160" as="geometry" />
        </mxCell>
        <mxCell id="zm9BK-51ZprV-HkFFLnc-30" value="# table&#xa;# allowedFields&#xa;# useTimestamps" style="text;strokeColor=none;fillColor=none;align=left;verticalAlign=top;spacingLeft=4;spacingRight=4;overflow=hidden;rotatable=0;points=[[0,0.5],[1,0.5]];portConstraint=eastwest;" parent="zm9BK-51ZprV-HkFFLnc-29" vertex="1">
          <mxGeometry y="26" width="130" height="84" as="geometry" />
        </mxCell>
        <mxCell id="zm9BK-51ZprV-HkFFLnc-31" value="+ getData()&#xa;+ updateProduk()&#xa;" style="text;fillColor=none;align=left;verticalAlign=top;spacingLeft=4;spacingRight=4;overflow=hidden;rotatable=0;points=[[0,0.5],[1,0.5]];portConstraint=eastwest;strokeColor=#000000;" parent="zm9BK-51ZprV-HkFFLnc-29" vertex="1">
          <mxGeometry y="110" width="130" height="50" as="geometry" />
        </mxCell>
        <mxCell id="zm9BK-51ZprV-HkFFLnc-32" value="MutasiModel" style="swimlane;fontStyle=0;childLayout=stackLayout;horizontal=1;startSize=26;fillColor=none;horizontalStack=0;resizeParent=1;resizeParentMax=0;resizeLast=0;collapsible=1;marginBottom=0;" parent="1" vertex="1">
          <mxGeometry x="360" y="560" width="130" height="160" as="geometry" />
        </mxCell>
        <mxCell id="zm9BK-51ZprV-HkFFLnc-33" value="# table&#xa;# allowedFields&#xa;# primaryKey" style="text;strokeColor=none;fillColor=none;align=left;verticalAlign=top;spacingLeft=4;spacingRight=4;overflow=hidden;rotatable=0;points=[[0,0.5],[1,0.5]];portConstraint=eastwest;" parent="zm9BK-51ZprV-HkFFLnc-32" vertex="1">
          <mxGeometry y="26" width="130" height="84" as="geometry" />
        </mxCell>
        <mxCell id="zm9BK-51ZprV-HkFFLnc-34" value="+ getData()&#xa;+ updateProduk()&#xa;" style="text;fillColor=none;align=left;verticalAlign=top;spacingLeft=4;spacingRight=4;overflow=hidden;rotatable=0;points=[[0,0.5],[1,0.5]];portConstraint=eastwest;strokeColor=#000000;" parent="zm9BK-51ZprV-HkFFLnc-32" vertex="1">
          <mxGeometry y="110" width="130" height="50" as="geometry" />
        </mxCell>
        <mxCell id="zm9BK-51ZprV-HkFFLnc-35" value="FakturModel" style="swimlane;fontStyle=0;childLayout=stackLayout;horizontal=1;startSize=26;fillColor=none;horizontalStack=0;resizeParent=1;resizeParentMax=0;resizeLast=0;collapsible=1;marginBottom=0;" parent="1" vertex="1">
          <mxGeometry x="600" y="500" width="130" height="100" as="geometry" />
        </mxCell>
        <mxCell id="zm9BK-51ZprV-HkFFLnc-36" value="# table&#xa;# allowedFields&#xa;# primaryKey" style="text;strokeColor=none;fillColor=none;align=left;verticalAlign=top;spacingLeft=4;spacingRight=4;overflow=hidden;rotatable=0;points=[[0,0.5],[1,0.5]];portConstraint=eastwest;" parent="zm9BK-51ZprV-HkFFLnc-35" vertex="1">
          <mxGeometry y="26" width="130" height="74" as="geometry" />
        </mxCell>
        <mxCell id="zm9BK-51ZprV-HkFFLnc-38" value="KendaraanModel" style="swimlane;fontStyle=0;childLayout=stackLayout;horizontal=1;startSize=26;fillColor=none;horizontalStack=0;resizeParent=1;resizeParentMax=0;resizeLast=0;collapsible=1;marginBottom=0;" parent="1" vertex="1">
          <mxGeometry x="600" y="800" width="130" height="110" as="geometry" />
        </mxCell>
        <mxCell id="zm9BK-51ZprV-HkFFLnc-39" value="# table&#xa;# allowedFields&#xa;# primaryKey" style="text;strokeColor=none;fillColor=none;align=left;verticalAlign=top;spacingLeft=4;spacingRight=4;overflow=hidden;rotatable=0;points=[[0,0.5],[1,0.5]];portConstraint=eastwest;" parent="zm9BK-51ZprV-HkFFLnc-38" vertex="1">
          <mxGeometry y="26" width="130" height="84" as="geometry" />
        </mxCell>
        <mxCell id="zm9BK-51ZprV-HkFFLnc-40" value="PembeliModel" style="swimlane;fontStyle=0;childLayout=stackLayout;horizontal=1;startSize=26;fillColor=none;horizontalStack=0;resizeParent=1;resizeParentMax=0;resizeLast=0;collapsible=1;marginBottom=0;" parent="1" vertex="1">
          <mxGeometry x="600" y="640" width="130" height="110" as="geometry" />
        </mxCell>
        <mxCell id="zm9BK-51ZprV-HkFFLnc-41" value="# table&#xa;# allowedFields&#xa;# primaryKey" style="text;strokeColor=none;fillColor=none;align=left;verticalAlign=top;spacingLeft=4;spacingRight=4;overflow=hidden;rotatable=0;points=[[0,0.5],[1,0.5]];portConstraint=eastwest;" parent="zm9BK-51ZprV-HkFFLnc-40" vertex="1">
          <mxGeometry y="26" width="130" height="84" as="geometry" />
        </mxCell>
        <mxCell id="zm9BK-51ZprV-HkFFLnc-64" style="edgeStyle=orthogonalEdgeStyle;rounded=0;orthogonalLoop=1;jettySize=auto;html=1;exitX=0.5;exitY=0;exitDx=0;exitDy=0;" parent="1" source="zm9BK-51ZprV-HkFFLnc-42" target="zm9BK-51ZprV-HkFFLnc-11" edge="1">
          <mxGeometry relative="1" as="geometry" />
        </mxCell>
        <mxCell id="zm9BK-51ZprV-HkFFLnc-42" value="InvoiceModel" style="swimlane;fontStyle=0;childLayout=stackLayout;horizontal=1;startSize=26;fillColor=none;horizontalStack=0;resizeParent=1;resizeParentMax=0;resizeLast=0;collapsible=1;marginBottom=0;" parent="1" vertex="1">
          <mxGeometry x="600" y="350" width="130" height="110" as="geometry" />
        </mxCell>
        <mxCell id="zm9BK-51ZprV-HkFFLnc-43" value="# table&#xa;# allowedFields&#xa;# primaryKey" style="text;strokeColor=none;fillColor=none;align=left;verticalAlign=top;spacingLeft=4;spacingRight=4;overflow=hidden;rotatable=0;points=[[0,0.5],[1,0.5]];portConstraint=eastwest;" parent="zm9BK-51ZprV-HkFFLnc-42" vertex="1">
          <mxGeometry y="26" width="130" height="84" as="geometry" />
        </mxCell>
        <mxCell id="zm9BK-51ZprV-HkFFLnc-57" style="edgeStyle=orthogonalEdgeStyle;rounded=0;orthogonalLoop=1;jettySize=auto;html=1;exitX=0;exitY=0;exitDx=0;exitDy=0;entryX=0.039;entryY=-0.078;entryDx=0;entryDy=0;entryPerimeter=0;" parent="1" source="zm9BK-51ZprV-HkFFLnc-48" target="zm9BK-51ZprV-HkFFLnc-4" edge="1">
          <mxGeometry relative="1" as="geometry">
            <Array as="points">
              <mxPoint x="180" y="800" />
              <mxPoint x="180" y="750" />
              <mxPoint x="50" y="750" />
              <mxPoint x="50" y="165" />
            </Array>
          </mxGeometry>
        </mxCell>
        <mxCell id="zm9BK-51ZprV-HkFFLnc-48" value="HargaModel" style="swimlane;fontStyle=0;childLayout=stackLayout;horizontal=1;startSize=26;fillColor=none;horizontalStack=0;resizeParent=1;resizeParentMax=0;resizeLast=0;collapsible=1;marginBottom=0;" parent="1" vertex="1">
          <mxGeometry x="120" y="800" width="130" height="160" as="geometry" />
        </mxCell>
        <mxCell id="zm9BK-51ZprV-HkFFLnc-49" value="# table&#xa;# primaryKey&#xa;# allowedFields&#xa;# useTimestamps" style="text;strokeColor=none;fillColor=none;align=left;verticalAlign=top;spacingLeft=4;spacingRight=4;overflow=hidden;rotatable=0;points=[[0,0.5],[1,0.5]];portConstraint=eastwest;" parent="zm9BK-51ZprV-HkFFLnc-48" vertex="1">
          <mxGeometry y="26" width="130" height="84" as="geometry" />
        </mxCell>
        <mxCell id="zm9BK-51ZprV-HkFFLnc-50" value="+ getData()&#xa;+ updateProduk()&#xa;" style="text;fillColor=none;align=left;verticalAlign=top;spacingLeft=4;spacingRight=4;overflow=hidden;rotatable=0;points=[[0,0.5],[1,0.5]];portConstraint=eastwest;strokeColor=#000000;" parent="zm9BK-51ZprV-HkFFLnc-48" vertex="1">
          <mxGeometry y="110" width="130" height="50" as="geometry" />
        </mxCell>
        <mxCell id="zm9BK-51ZprV-HkFFLnc-58" style="edgeStyle=orthogonalEdgeStyle;rounded=0;orthogonalLoop=1;jettySize=auto;html=1;exitX=1;exitY=0.5;exitDx=0;exitDy=0;entryX=-0.004;entryY=0.149;entryDx=0;entryDy=0;entryPerimeter=0;" parent="1" source="zm9BK-51ZprV-HkFFLnc-13" target="zm9BK-51ZprV-HkFFLnc-6" edge="1">
          <mxGeometry relative="1" as="geometry" />
        </mxCell>
        <mxCell id="zm9BK-51ZprV-HkFFLnc-59" style="edgeStyle=orthogonalEdgeStyle;rounded=0;orthogonalLoop=1;jettySize=auto;html=1;exitX=1;exitY=0.5;exitDx=0;exitDy=0;entryX=0;entryY=0.5;entryDx=0;entryDy=0;" parent="1" source="zm9BK-51ZprV-HkFFLnc-17" target="zm9BK-51ZprV-HkFFLnc-6" edge="1">
          <mxGeometry relative="1" as="geometry" />
        </mxCell>
        <mxCell id="zm9BK-51ZprV-HkFFLnc-61" style="edgeStyle=orthogonalEdgeStyle;rounded=0;orthogonalLoop=1;jettySize=auto;html=1;exitX=1;exitY=0.5;exitDx=0;exitDy=0;" parent="1" source="zm9BK-51ZprV-HkFFLnc-30" target="zm9BK-51ZprV-HkFFLnc-7" edge="1">
          <mxGeometry relative="1" as="geometry">
            <Array as="points">
              <mxPoint x="520" y="868" />
              <mxPoint x="520" y="230" />
            </Array>
          </mxGeometry>
        </mxCell>
        <mxCell id="zm9BK-51ZprV-HkFFLnc-62" style="edgeStyle=orthogonalEdgeStyle;rounded=0;orthogonalLoop=1;jettySize=auto;html=1;entryX=0;entryY=0.5;entryDx=0;entryDy=0;" parent="1" source="zm9BK-51ZprV-HkFFLnc-33" target="zm9BK-51ZprV-HkFFLnc-7" edge="1">
          <mxGeometry relative="1" as="geometry" />
        </mxCell>
        <mxCell id="zm9BK-51ZprV-HkFFLnc-63" style="edgeStyle=orthogonalEdgeStyle;rounded=0;orthogonalLoop=1;jettySize=auto;html=1;exitX=1;exitY=0.5;exitDx=0;exitDy=0;entryX=0;entryY=0.5;entryDx=0;entryDy=0;" parent="1" source="zm9BK-51ZprV-HkFFLnc-18" target="zm9BK-51ZprV-HkFFLnc-10" edge="1">
          <mxGeometry relative="1" as="geometry">
            <Array as="points">
              <mxPoint x="280" y="695" />
              <mxPoint x="280" y="750" />
              <mxPoint x="550" y="750" />
              <mxPoint x="550" y="148" />
            </Array>
          </mxGeometry>
        </mxCell>
        <mxCell id="zm9BK-51ZprV-HkFFLnc-66" style="edgeStyle=orthogonalEdgeStyle;rounded=0;orthogonalLoop=1;jettySize=auto;html=1;exitX=0;exitY=0.5;exitDx=0;exitDy=0;entryX=0;entryY=0.5;entryDx=0;entryDy=0;" parent="1" source="zm9BK-51ZprV-HkFFLnc-36" target="zm9BK-51ZprV-HkFFLnc-11" edge="1">
          <mxGeometry relative="1" as="geometry" />
        </mxCell>
        <mxCell id="zm9BK-51ZprV-HkFFLnc-67" style="edgeStyle=orthogonalEdgeStyle;rounded=0;orthogonalLoop=1;jettySize=auto;html=1;exitX=1;exitY=0.5;exitDx=0;exitDy=0;entryX=1;entryY=0.5;entryDx=0;entryDy=0;" parent="1" source="zm9BK-51ZprV-HkFFLnc-41" target="zm9BK-51ZprV-HkFFLnc-10" edge="1">
          <mxGeometry relative="1" as="geometry">
            <Array as="points">
              <mxPoint x="770" y="708" />
              <mxPoint x="770" y="148" />
            </Array>
          </mxGeometry>
        </mxCell>
        <mxCell id="zm9BK-51ZprV-HkFFLnc-68" style="edgeStyle=orthogonalEdgeStyle;rounded=0;orthogonalLoop=1;jettySize=auto;html=1;exitX=1;exitY=0.5;exitDx=0;exitDy=0;" parent="1" source="zm9BK-51ZprV-HkFFLnc-39" target="zm9BK-51ZprV-HkFFLnc-10" edge="1">
          <mxGeometry relative="1" as="geometry">
            <Array as="points">
              <mxPoint x="800" y="868" />
              <mxPoint x="800" y="120" />
            </Array>
          </mxGeometry>
        </mxCell>
      </root>
    </mxGraphModel>
  </diagram>
</mxfile>
